<?xml version="1.0" standalone="yes"?><!DOCTYPE svg PUBLIC "-//W3C//DTD SVG 1.1//EN" "http://www.w3.org/Graphics/SVG/1.1/DTD/svg11.dtd"><svg width="640px" height="640px" xmlns="http://www.w3.org/2000/svg" version="1.1"><path d="M-124.70765814495915,-216 L-52,-111L-39,-186L-94,-244L-25,-92L0,-288L0,-288L25,-92L94,-244L39,-186L52,-111L124.70765814495915,-216L124.70765814495914,-216L70.12881982007266,-100.53332099679082L141.5807251039056,-126.77499074759312L164.31019852340302,-203.40638795573727L67.17433714816835,-67.65063509461098L249.4153162899183,-144.00000000000003L249.4153162899183,-144.00000000000003L92.17433714816835,-24.34936490538904L258.310198523403,-40.5936120442628L180.5807251039056,-59.225009252406906L122.12881982007269,-10.466679003209208L249.4153162899183,-4.263256414560601e-14L249.41531628991834,-5.684341886080802e-14L122.12881982007269,10.466679003209158L180.58072510390562,59.22500925240684L258.3101985234031,40.5936120442627L92.17433714816838,24.34936490538901L249.4153162899184,143.99999999999994L249.4153162899184,143.99999999999994L67.17433714816838,67.65063509461095L164.3101985234031,203.4063879557372L141.58072510390562,126.77499074759308L70.12881982007272,100.53332099679079L124.70765814495923,215.99999999999997L124.70765814495918,215.99999999999997L52.000000000000014,111L39.00000000000002,186L94.00000000000003,244L25.00000000000001,92L3.5269827815443773e-14,288L3.5269827815443773e-14,288L-24.99999999999999,92L-93.99999999999997,244L-38.99999999999998,186L-51.999999999999986,111L-124.70765814495913,216.00000000000003L-124.70765814495905,216.00000000000006L-70.12881982007264,100.53332099679085L-141.5807251039055,126.77499074759318L-164.3101985234029,203.40638795573733L-67.17433714816832,67.650635094611L-249.41531628991825,144.0000000000001L-249.41531628991825,144.0000000000001L-92.17433714816835,24.349364905389084L-258.310198523403,40.59361204426291L-180.58072510390556,59.22500925240699L-122.12881982007269,10.466679003209258L-249.41531628991834,1.4210854715202004e-13L-249.4153162899183,-1.4210854715202004e-14L-122.12881982007268,-10.466679003209194L-180.5807251039056,-59.22500925240689L-258.310198523403,-40.59361204426277L-92.17433714816835,-24.349364905389034L-249.4153162899183,-144L-249.4153162899183,-144L-67.17433714816835,-67.65063509461096L-164.31019852340302,-203.40638795573722L-141.5807251039056,-126.77499074759311L-70.12881982007268,-100.5333209967908L-124.70765814495914,-216L-124.70765814495915,-216Z" stroke="#000" fill="#000" transform="translate(320,320)" /></svg>